<svg width="135" height="32" viewBox="0 0 135 32" fill="none" xmlns="http://www.w3.org/2000/svg">
<path d="M9.58312 3.75046C11.4583 3.75046 13.6086 4.48918 15.6513 5.83038C17.9354 7.33032 19.9631 9.47899 21.5145 12.0414C22.7509 14.0813 23.6123 16.2912 24.0048 18.4224C24.3636 20.3723 24.3311 22.2323 23.9111 23.7972C23.4348 25.5771 22.5221 26.8483 21.197 27.5783C20.3431 28.0343 19.3871 28.2653 18.4192 28.2495C16.5439 28.2495 14.3937 27.5108 12.3509 26.1696C10.0669 24.6697 8.03919 22.521 6.48776 19.9586C5.25136 17.9187 4.39001 15.7088 3.99746 13.5838C3.63867 11.6339 3.67117 9.77398 4.09122 8.20904C4.56753 6.42911 5.48014 5.15791 6.80529 4.42793C7.65862 3.96978 8.61465 3.73662 9.58312 3.75046V3.75046ZM9.58312 0.000598352C7.98402 -0.0174325 6.4067 0.372319 5.00008 1.13306C-0.924366 4.39168 -1.69321 13.6901 3.27863 21.901C7.07908 28.1758 13.1335 31.9994 18.4192 31.9994C20.0183 32.0174 21.5956 31.6277 23.0022 30.8669C28.9241 27.6083 29.693 18.3099 24.7212 10.099C20.9232 3.8242 14.8687 0.000598352 9.58312 0.000598352Z" fill="#D81B60"/>
<path d="M27.417 3.74978C28.3847 3.73265 29.3407 3.96282 30.1945 4.41849C31.5195 5.1472 32.432 6.41838 32.9082 8.19828C33.3282 9.76819 33.3607 11.6281 33.002 13.573C32.6095 15.7066 31.752 17.9127 30.512 19.9538C28.9607 22.5162 26.9332 24.6636 24.6495 26.1635C22.607 27.5047 20.452 28.2446 18.582 28.2446C17.6143 28.2618 16.6583 28.0316 15.8045 27.5759C14.4795 26.8472 13.567 25.576 13.0907 23.7961C12.6707 22.2262 12.6382 20.3663 12.997 18.4214C13.3895 16.2878 14.247 14.0817 15.487 12.0468C17.0382 9.4807 19.0657 7.33083 21.3495 5.83091C23.392 4.48974 25.547 3.74978 27.417 3.74978ZM27.417 0C22.132 0 16.0782 3.82228 12.2782 10.0969C7.30699 18.3089 8.07574 27.6047 13.9995 30.8657C15.4066 31.6272 16.9846 32.0174 18.5845 31.9994C23.8695 31.9994 29.9232 28.1759 33.7232 21.9012C38.692 13.6905 37.9232 4.39225 31.9995 1.13368C30.5923 0.37255 29.0143 -0.0172065 27.4145 0.00124996L27.417 0Z" fill="#D81B60"/>
<path d="M61.1619 9.35187L54.7782 22.6244H50.3819L43.9994 9.35187H47.6394L52.5957 19.6556L57.5232 9.35187H61.1619Z" fill="#111827"/>
<path d="M81.0444 10.8019C82.4194 12.0344 83.1169 13.7694 83.1169 15.9819C83.1169 18.2219 82.4169 19.9581 81.0444 21.1619C79.6444 22.3656 78.0444 22.9819 76.2569 22.9819C74.2682 22.9819 72.6444 22.3381 71.3282 21.0219V27.7981H67.9944V9.34062H71.3257V10.9369C72.6444 9.62062 74.2969 8.97687 76.2569 8.97687C78.0482 8.97687 79.6444 9.59312 81.0444 10.8019ZM78.5519 18.7544C79.3019 18.0544 79.7007 17.1294 79.7007 15.9819C79.7007 14.8344 79.3082 13.9094 78.5519 13.2094C77.7682 12.5094 76.7607 12.1744 75.5007 12.1744C74.2407 12.1744 73.2319 12.5094 72.4769 13.2094C71.7219 13.9094 71.3282 14.8344 71.3282 15.9819C71.3282 17.1294 71.7207 18.0544 72.4769 18.7544C73.2332 19.4544 74.2407 19.7894 75.5007 19.7894C76.7607 19.7894 77.7682 19.4494 78.5519 18.7494V18.7544Z" fill="#111827"/>
<path d="M99.7582 9.34073V22.6132H96.4269V20.9882C95.1107 22.302 93.4582 22.977 91.4769 22.977C89.7185 22.9869 88.0202 22.3375 86.7169 21.157C85.3169 19.9532 84.6169 18.217 84.6169 15.977C84.6169 13.7645 85.3169 12.0295 86.7169 10.797C88.0202 9.61644 89.7185 8.96708 91.4769 8.97698C93.4369 8.97698 95.0894 9.64948 96.4332 10.9645V9.33948L99.7582 9.34073ZM95.2507 18.7495C96.0007 18.0495 96.3982 17.1245 96.3982 15.977C96.3982 14.8295 96.0069 13.9045 95.2507 13.2045C94.4944 12.5045 93.4869 12.1695 92.2269 12.1695C90.9669 12.1695 89.9582 12.5045 89.2032 13.2045C88.4182 13.9045 88.0261 14.8286 88.0269 15.977C88.0277 17.1253 88.4198 18.0495 89.2032 18.7495C89.9532 19.4495 90.9669 19.7845 92.2269 19.7845C93.4869 19.7845 94.4944 19.4495 95.2507 18.7495V18.7495Z" fill="#111827"/>
<path d="M114.778 10.4557C115.903 11.4357 116.458 12.9194 116.458 14.8794V22.6082H113.126V16.0282C113.126 13.4519 111.949 12.1644 109.569 12.1644C108.423 12.1533 107.314 12.5726 106.462 13.3394C105.538 14.1244 105.087 15.2994 105.087 16.8394V22.6082H101.758V9.33565H105.089V11.3519C106.518 9.75565 108.282 8.9769 110.411 8.9769C112.202 8.9719 113.658 9.47565 114.778 10.4557Z" fill="#111827"/>
<path d="M62.6619 9.35187H65.9944V22.6244H62.6619V9.35187Z" fill="#111827"/>
<path d="M62.2174 6.96944C62.3341 7.21245 62.5059 7.42492 62.719 7.58998C63.1762 7.96334 63.7514 8.16184 64.3415 8.14998C64.9311 8.15313 65.5041 7.95565 65.9665 7.58998C66.1795 7.42479 66.3512 7.21229 66.4679 6.96931C66.5846 6.72633 66.6432 6.45952 66.639 6.18998C66.6408 5.91715 66.5816 5.64736 66.4657 5.40037C66.3497 5.15337 66.1801 4.93543 65.969 4.76248C65.5069 4.39629 64.9336 4.19874 64.344 4.20248C63.7529 4.18937 63.1766 4.38798 62.719 4.76248C62.5073 4.93501 62.337 5.15281 62.2206 5.39985C62.1043 5.6469 62.0448 5.9169 62.0465 6.18998C62.0421 6.45955 62.1006 6.72642 62.2174 6.96944Z" fill="#111827"/>
<path d="M118.458 9.35187H121.791V22.6244H118.458V9.35187Z" fill="#111827"/>
<path d="M118.009 6.96944C118.125 7.21245 118.297 7.42492 118.51 7.58998C118.967 7.96334 119.543 8.16184 120.133 8.14998C120.722 8.15313 121.295 7.95565 121.758 7.58998C121.971 7.42479 122.142 7.21229 122.259 6.96931C122.376 6.72633 122.434 6.45952 122.43 6.18998C122.432 5.91715 122.373 5.64736 122.257 5.40037C122.141 5.15337 121.971 4.93543 121.76 4.76248C121.298 4.39629 120.725 4.19874 120.135 4.20248C119.544 4.18937 118.968 4.38798 118.51 4.76248C118.299 4.93501 118.128 5.15281 118.012 5.39985C117.896 5.6469 117.836 5.9169 117.838 6.18998C117.833 6.45955 117.892 6.72642 118.009 6.96944Z" fill="#111827"/>
<path d="M128.902 4.016V4.718H127.564V8H126.832V4.718H125.5V4.016H128.902ZM133.236 4.016H134.208V8H133.476V5.186L132.174 8H131.43L130.128 5.174V8H129.396V4.016H130.368L131.802 7.094L133.236 4.016Z" fill="#111827"/>
</svg>
